<?xml version="1.0" encoding="utf-8"?>
<!-- Generator: Adobe Illustrator 15.1.0, SVG Export Plug-In . SVG Version: 6.00 Build 0)  -->
<!DOCTYPE svg PUBLIC "-//W3C//DTD SVG 1.1//EN" "http://www.w3.org/Graphics/SVG/1.1/DTD/svg11.dtd">
<svg version="1.1" xmlns="http://www.w3.org/2000/svg" xmlns:xlink="http://www.w3.org/1999/xlink" x="0px" y="0px" width="256px"
	 height="256px" viewBox="0 0 256 256" enable-background="new 0 0 256 256" xml:space="preserve">
<g id="Layer_2">
</g>
<g id="Layer_1">
	<g>
		<circle fill="#D92451" cx="16" cy="16" r="16"/>
		<g>
			<polygon points="9.939,8 9.939,23.888 25.828,15.943 			"/>
		</g>
	</g>
	<g>
		<circle fill="#AE4C9D" cx="48" cy="16" r="16"/>
		<g>
			<g>
				<polygon points="44.862,8.056 50.904,16 44.862,23.943 60.751,15.999 				"/>
			</g>
			<g>
				<polygon points="39.494,8.056 45.536,16 39.494,23.943 55.383,15.999 				"/>
			</g>
		</g>
	</g>
	<g>
		<circle fill="#D85227" cx="80" cy="16" r="16"/>
		<g>
			<g>
				<polygon points="83.751,8.056 77.793,16 83.751,23.943 68.081,15.999 				"/>
			</g>
			<g>
				<polygon points="89.046,8.056 83.087,16 89.046,23.943 73.375,15.999 				"/>
			</g>
		</g>
	</g>
	<g>
		<circle fill="#D9AEB8" cx="112" cy="16" r="16"/>
		<g>
			<rect x="106.442" y="7.959" width="4.891" height="15.942"/>
			<rect x="113.109" y="7.986" width="4.891" height="15.942"/>
		</g>
	</g>
	<g>
		<circle cx="16" cy="48" r="16"/>
		<g>
			<polygon fill="#D92451" points="9.939,40.001 9.939,55.889 25.828,47.944 			"/>
		</g>
	</g>
	<g>
		<circle cx="48" cy="48" r="16"/>
		<g>
			<g>
				<polygon fill="#AE4C9D" points="44.862,40.056 50.904,48 44.862,55.943 60.751,47.999 				"/>
			</g>
			<g>
				<polygon fill="#AE4C9D" points="39.494,40.056 45.536,48 39.494,55.943 55.383,47.999 				"/>
			</g>
		</g>
	</g>
	<g>
		<circle cx="80" cy="48" r="16"/>
		<g>
			<g>
				<polygon fill="#D85227" points="83.751,40.056 77.793,48 83.751,55.943 68.081,47.999 				"/>
			</g>
			<g>
				<polygon fill="#D85227" points="89.046,40.056 83.087,48 89.046,55.943 73.375,47.999 				"/>
			</g>
		</g>
	</g>
	<g>
		<circle cx="112" cy="48" r="16"/>
		<g>
			<rect x="106.442" y="39.959" fill="#D9AEB8" width="4.891" height="15.942"/>
			<rect x="113.109" y="39.986" fill="#D9AEB8" width="4.891" height="15.942"/>
		</g>
	</g>
	<g>
		<path d="M144,0c-8.837,0-16,7.163-16,16s7.163,16,16,16h16V0H144z"/>
	</g>
	<g>
		<path d="M176.004,0c8.837,0,16,7.163,16,16s-7.163,16-16,16h-16V0H176.004z"/>
	</g>
	<g>
		<path fill="#D92451" d="M144,31.93c-8.837,0-16,7.163-16,16s7.163,16,16,16h16v-32H144z"/>
	</g>
	<g>
		<path fill="#D92451" d="M176.004,31.93c8.837,0,16,7.163,16,16s-7.163,16-16,16h-16v-32H176.004z"/>
	</g>
	<polygon fill="#D92451" points="183.972,13.735 178.445,13.735 178.445,8.209 173.555,8.209 173.555,13.735 168.028,13.735 
		168.028,18.626 173.555,18.626 173.555,24.151 178.445,24.151 178.445,18.626 183.972,18.626 	"/>
	<rect x="136.028" y="13.555" fill="#D92451" width="15.943" height="4.891"/>
	<polygon points="183.972,45.555 178.445,45.555 178.445,40.029 173.555,40.029 173.555,45.555 168.028,45.555 168.028,50.446 
		173.555,50.446 173.555,55.971 178.445,55.971 178.445,50.446 183.972,50.446 	"/>
	<rect x="136.028" y="45.375" width="15.943" height="4.891"/>
</g>
</svg>
