<?xml version="1.0" encoding="utf-8"?>
<!-- Generator: Adobe Illustrator 15.1.0, SVG Export Plug-In . SVG Version: 6.00 Build 0)  -->
<!DOCTYPE svg PUBLIC "-//W3C//DTD SVG 1.1//EN" "http://www.w3.org/Graphics/SVG/1.1/DTD/svg11.dtd">
<svg version="1.1" id="Layer_1" xmlns="http://www.w3.org/2000/svg" xmlns:xlink="http://www.w3.org/1999/xlink" x="0px" y="0px"
	 width="256px" height="256px" viewBox="0 0 256 256" enable-background="new 0 0 256 256" xml:space="preserve">
<g id="Layer_2">
</g>
<g id="Layer_1_1_">
	<g>
		<circle fill="#D92451" cx="48" cy="16" r="16"/>
		<g>
			<polygon points="41.939,8 41.939,23.888 57.828,15.943 			"/>
		</g>
	</g>
	<g>
		<circle fill="#AE4C9D" cx="112" cy="16" r="16"/>
		<g>
			<g>
				<polygon points="108.862,8.056 114.904,16 108.862,23.943 124.751,15.999 				"/>
			</g>
			<g>
				<polygon points="103.494,8.056 109.536,16 103.494,23.943 119.383,15.999 				"/>
			</g>
		</g>
	</g>
	<g>
		<circle fill="#D85227" cx="16" cy="16" r="16"/>
		<g>
			<g>
				<polygon points="19.751,8.056 13.793,16 19.751,23.943 4.081,15.999 				"/>
			</g>
			<g>
				<polygon points="25.046,8.056 19.087,16 25.046,23.943 9.375,15.999 				"/>
			</g>
		</g>
	</g>
	<g>
		<circle fill="#D9AEB8" cx="80" cy="16" r="16"/>
		<g>
			<rect x="74.442" y="7.959" width="4.891" height="15.942"/>
			<rect x="81.109" y="7.986" width="4.891" height="15.942"/>
		</g>
	</g>
	<g>
		<circle cx="48" cy="48" r="16"/>
		<g>
			<polygon fill="#D92451" points="41.939,40.001 41.939,55.889 57.828,47.944 			"/>
		</g>
	</g>
	<g>
		<circle cx="112" cy="48" r="16"/>
		<g>
			<g>
				<polygon fill="#AE4C9D" points="108.862,40.056 114.904,48 108.862,55.943 124.751,47.999 				"/>
			</g>
			<g>
				<polygon fill="#AE4C9D" points="103.494,40.056 109.536,48 103.494,55.943 119.383,47.999 				"/>
			</g>
		</g>
	</g>
	<g>
		<circle cx="16" cy="48" r="16"/>
		<g>
			<g>
				<polygon fill="#D85227" points="19.751,40.056 13.793,48 19.751,55.943 4.081,47.999 				"/>
			</g>
			<g>
				<polygon fill="#D85227" points="25.046,40.056 19.087,48 25.046,55.943 9.375,47.999 				"/>
			</g>
		</g>
	</g>
	<g>
		<circle cx="80" cy="48" r="16"/>
		<g>
			<rect x="74.442" y="39.959" fill="#D9AEB8" width="4.891" height="15.942"/>
			<rect x="81.109" y="39.986" fill="#D9AEB8" width="4.891" height="15.942"/>
		</g>
	</g>
	<g>
		<path d="M144,0c-8.837,0-16,7.163-16,16s7.163,16,16,16h16V0H144z"/>
	</g>
	<g>
		<path d="M176.004,0c8.837,0,16,7.163,16,16s-7.163,16-16,16h-16V0H176.004z"/>
	</g>
	<g>
		<path fill="#D92451" d="M144,31.93c-8.837,0-16,7.163-16,16c0,8.837,7.163,16,16,16h16v-32H144z"/>
	</g>
	<g>
		<path fill="#D92451" d="M176.004,31.93c8.837,0,16,7.163,16,16c0,8.837-7.163,16-16,16h-16v-32H176.004z"/>
	</g>
	<polygon fill="#D92451" points="183.973,13.735 178.445,13.735 178.445,8.209 173.555,8.209 173.555,13.735 168.027,13.735 
		168.027,18.626 173.555,18.626 173.555,24.151 178.445,24.151 178.445,18.626 183.973,18.626 	"/>
	<rect x="136.027" y="13.555" fill="#D92451" width="15.943" height="4.891"/>
	<polygon points="183.973,45.555 178.445,45.555 178.445,40.029 173.555,40.029 173.555,45.555 168.027,45.555 168.027,50.446 
		173.555,50.446 173.555,55.971 178.445,55.971 178.445,50.446 183.973,50.446 	"/>
	<rect x="136.027" y="45.375" width="15.943" height="4.891"/>
</g>
</svg>
